<?xml version="1.0" encoding="utf-8"?>
<!-- Generator: Adobe Illustrator 19.2.1, SVG Export Plug-In . SVG Version: 6.00 Build 0)  -->
<svg version="1.1" id="Capa_1" xmlns="http://www.w3.org/2000/svg" xmlns:xlink="http://www.w3.org/1999/xlink" x="0px" y="0px"
	 viewBox="0 0 100 100" style="enable-background:new 0 0 100 100;" xml:space="preserve">
<style type="text/css">
	.st0{fill:#FFFFFF;}
</style>
<g>
	<g>
		<path class="st0" d="M49.6,1.7C22.8,1.7,1,23.5,1,50.3s21.8,48.6,48.6,48.6s48.6-21.8,48.6-48.6S76.4,1.7,49.6,1.7z M49.6,95.3
			c-24.8,0-45-20.2-45-45s20.2-45,45-45s45,20.2,45,45S74.4,95.3,49.6,95.3z"/>
		<path class="st0" d="M67.2,43.4L49.6,61L32,43.4c-0.7-0.7-1.8-0.7-2.5,0c-0.7,0.7-0.7,1.8,0,2.5l18.9,18.9
			c0.4,0.4,0.8,0.5,1.3,0.5c0.5,0,0.9-0.2,1.3-0.5l18.9-18.9c0.7-0.7,0.7-1.8,0-2.5C69.1,42.7,67.9,42.7,67.2,43.4z"/>
	</g>
</g>
</svg>
