<?xml version="1.0" encoding="utf-8"?>
<!-- Generator: Adobe Illustrator 19.2.1, SVG Export Plug-In . SVG Version: 6.00 Build 0)  -->
<svg version="1.1" id="Layer_1" xmlns="http://www.w3.org/2000/svg" xmlns:xlink="http://www.w3.org/1999/xlink" x="0px" y="0px"
	 viewBox="0 0 684.8 795.7" style="enable-background:new 0 0 684.8 795.7;" xml:space="preserve">
<style type="text/css">
	.st0{fill:#2E71A3;}
	.st1{fill:#FFFFFF;}
	.st2{fill:#F9DD28;}
	.st3{fill:#F9DD28;stroke:#FFFFFF;stroke-miterlimit:10;}
	.st4{fill:#C20B19;}
	.st5{fill:#303180;}
	.st6{fill:#C20B19;stroke:#F9DD28;stroke-width:2;stroke-miterlimit:10;}
	.st7{fill:#FFFFFF;stroke:#000000;stroke-width:2;stroke-miterlimit:10;}
</style>
<g>
	<polygon class="st0" points="323.5,37.3 166.4,37.3 166.4,795.7 199.3,795.7 199.3,66.2 291.9,66.2 291.9,795.7 323.5,795.7 	"/>
	<g>
		<g>
			<path class="st1" d="M344.3,182.8L56.8,297.3c0,0-19.5,9.5-19.5,33c0,20,9.2,29.3,19.5,36.5c11.4,7.9,287.5,113.5,287.5,113.5
				l288-115.5c0,0,18.5-6,18.5-34.5s-18.5-32-18.5-32L344.3,182.8z"/>
			<path class="st2" d="M344.4,486.2l-2-0.8C314,474.6,65.3,379.4,53.7,371.4c-10.8-7.5-21.9-18.2-21.9-41
				c0-26.6,21.7-37.5,22.6-37.9l0.4-0.2l289.5-115.3L634,293.1c3.8,1,22.3,7.3,22.3,37.3c0,30.7-19.5,38.7-22.1,39.6L344.4,486.2z
				 M59.1,302.4c-1.7,0.9-16.3,9.1-16.3,28c0,16.7,6.8,24.9,17.1,32c8.9,5.8,174.1,69.9,284.3,112.1l286.2-114.8l0.2-0.1
				c0.5-0.2,14.7-5.5,14.7-29.3c0-23.2-13.5-26.5-14.1-26.6l-0.5-0.1l-0.4-0.2l-286-114.7L59.1,302.4z"/>
		</g>
		<g>
			<g>
				<circle class="st3" cx="330.6" cy="177.8" r="5.1"/>
				<circle class="st3" cx="319.3" cy="182.2" r="5.1"/>
				<circle class="st3" cx="308.1" cy="186.7" r="5.1"/>
				<circle class="st3" cx="296.9" cy="191.1" r="5.1"/>
				<circle class="st3" cx="285.7" cy="195.5" r="5.1"/>
				<circle class="st3" cx="274.4" cy="200" r="5.1"/>
				<circle class="st3" cx="263.2" cy="204.4" r="5.1"/>
				<circle class="st3" cx="252" cy="208.8" r="5.1"/>
				<circle class="st3" cx="240.8" cy="213.3" r="5.1"/>
				<circle class="st3" cx="229.5" cy="217.7" r="5.1"/>
				<circle class="st3" cx="218.3" cy="222.2" r="5.1"/>
				<circle class="st3" cx="207.1" cy="226.6" r="5.1"/>
				<circle class="st3" cx="195.8" cy="231" r="5.1"/>
				<circle class="st3" cx="184.6" cy="235.5" r="5.1"/>
				<circle class="st3" cx="173.4" cy="239.9" r="5.1"/>
				<circle class="st3" cx="162.2" cy="244.4" r="5.1"/>
				<circle class="st3" cx="150.9" cy="248.8" r="5.1"/>
				<circle class="st3" cx="139.7" cy="253.2" r="5.1"/>
				<circle class="st3" cx="128.5" cy="257.7" r="5.1"/>
				<circle class="st3" cx="117.3" cy="262.1" r="5.1"/>
				<circle class="st3" cx="106" cy="266.6" r="5.1"/>
				<circle class="st3" cx="94.8" cy="271" r="5.1"/>
				<circle class="st3" cx="83.6" cy="275.4" r="5.1"/>
				<circle class="st3" cx="72.4" cy="279.9" r="5.1"/>
				<circle class="st3" cx="61.1" cy="284.3" r="5.1"/>
				<circle class="st3" cx="49.9" cy="288.7" r="5.1"/>
				<circle class="st3" cx="40.9" cy="297" r="5.1"/>
				<circle class="st3" cx="31.2" cy="311.7" r="5.1"/>
				<circle class="st3" cx="28.1" cy="330.3" r="5.1"/>
				<circle class="st3" cx="29.4" cy="345.2" r="5.1"/>
				<circle class="st3" cx="35.9" cy="360.2" r="5.1"/>
			</g>
			<g>
				
					<ellipse transform="matrix(0.6856 -0.728 0.728 0.6856 -10.6334 555.6183)" class="st3" cx="637.9" cy="290.1" rx="5.1" ry="5.1"/>
				<ellipse transform="matrix(0.6856 -0.728 0.728 0.6856 -12.0272 566.16)" class="st3" cx="649.4" cy="297" rx="5.1" ry="5.1"/>
				
					<ellipse transform="matrix(0.6856 -0.728 0.728 0.6856 -19.4094 576.4026)" class="st3" cx="657.5" cy="310.7" rx="5.1" ry="5.1"/>
				
					<ellipse transform="matrix(0.6856 -0.728 0.728 0.6856 -30.5996 583.8275)" class="st3" cx="660.5" cy="327.3" rx="5.1" ry="5.1"/>
				
					<ellipse transform="matrix(0.6856 -0.728 0.728 0.6856 -42.7576 588.1661)" class="st3" cx="659.5" cy="343.6" rx="5.1" ry="5.1"/>
				
					<ellipse transform="matrix(0.6856 -0.728 0.728 0.6856 -55.8764 588.7927)" class="st3" cx="653.7" cy="359.1" rx="5.1" ry="5.1"/>
				
					<ellipse transform="matrix(0.6856 -0.728 0.728 0.6856 -10.9153 546.0328)" class="st3" cx="626.7" cy="285.7" rx="5.1" ry="5.1"/>
				
					<ellipse transform="matrix(0.6856 -0.728 0.728 0.6856 -11.1999 536.4431)" class="st3" cx="615.5" cy="281.2" rx="5.1" ry="5.1"/>
				
					<ellipse transform="matrix(0.6856 -0.728 0.728 0.6856 -11.4673 526.894)" class="st3" cx="604.2" cy="276.7" rx="5.1" ry="5.1"/>
				
					<ellipse transform="matrix(0.6856 -0.728 0.728 0.6856 -11.7411 517.3282)" class="st3" cx="593" cy="272.3" rx="5.1" ry="5.1"/>
				
					<ellipse transform="matrix(0.6856 -0.728 0.728 0.6856 -12.0267 507.7358)" class="st3" cx="581.8" cy="267.8" rx="5.1" ry="5.1"/>
				
					<ellipse transform="matrix(0.6856 -0.728 0.728 0.6856 -12.3025 498.1669)" class="st3" cx="570.6" cy="263.3" rx="5.1" ry="5.1"/>
				
					<ellipse transform="matrix(0.6856 -0.728 0.728 0.6856 -12.564 488.6324)" class="st3" cx="559.4" cy="258.9" rx="5.1" ry="5.1"/>
				
					<ellipse transform="matrix(0.6856 -0.728 0.728 0.6856 -12.8471 479.0441)" class="st3" cx="548.2" cy="254.4" rx="5.1" ry="5.1"/>
				
					<ellipse transform="matrix(0.6856 -0.728 0.728 0.6856 -13.1296 469.4594)" class="st3" cx="536.9" cy="249.9" rx="5.1" ry="5.1"/>
				
					<ellipse transform="matrix(0.6857 -0.7279 0.7279 0.6857 -13.4206 459.8513)" class="st3" cx="525.7" cy="245.5" rx="5.1" ry="5.1"/>
				
					<ellipse transform="matrix(0.6856 -0.728 0.728 0.6856 -13.6733 450.3396)" class="st3" cx="514.5" cy="241" rx="5.1" ry="5.1"/>
				
					<ellipse transform="matrix(0.6856 -0.728 0.728 0.6856 -13.9489 440.7704)" class="st3" cx="503.3" cy="236.5" rx="5.1" ry="5.1"/>
				
					<ellipse transform="matrix(0.6856 -0.728 0.728 0.6856 -14.235 431.1756)" class="st3" cx="492.1" cy="232.1" rx="5.1" ry="5.1"/>
				
					<ellipse transform="matrix(0.6855 -0.728 0.728 0.6855 -14.489 421.6621)" class="st3" cx="480.9" cy="227.6" rx="5.1" ry="5.1"/>
				
					<ellipse transform="matrix(0.6856 -0.728 0.728 0.6856 -14.7842 412.0429)" class="st3" cx="469.6" cy="223.1" rx="5.1" ry="5.1"/>
				
					<ellipse transform="matrix(0.6856 -0.728 0.728 0.6856 -15.0609 402.4709)" class="st3" cx="458.4" cy="218.7" rx="5.1" ry="5.1"/>
				
					<ellipse transform="matrix(0.6856 -0.728 0.728 0.6856 -15.3412 392.8903)" class="st3" cx="447.2" cy="214.2" rx="5.1" ry="5.1"/>
				
					<ellipse transform="matrix(0.6855 -0.728 0.728 0.6855 -15.5982 383.3701)" class="st3" cx="436" cy="209.7" rx="5.1" ry="5.1"/>
				
					<ellipse transform="matrix(0.6856 -0.728 0.728 0.6856 -15.8866 373.7675)" class="st3" cx="424.8" cy="205.3" rx="5.1" ry="5.1"/>
				
					<ellipse transform="matrix(0.6856 -0.728 0.728 0.6856 -16.1675 364.184)" class="st3" cx="413.6" cy="200.8" rx="5.1" ry="5.1"/>
				
					<ellipse transform="matrix(0.6856 -0.728 0.728 0.6856 -16.4311 354.6468)" class="st3" cx="402.3" cy="196.3" rx="5.1" ry="5.1"/>
				
					<ellipse transform="matrix(0.6856 -0.728 0.728 0.6856 -16.7041 345.0849)" class="st3" cx="391.1" cy="191.9" rx="5.1" ry="5.1"/>
				
					<ellipse transform="matrix(0.6856 -0.728 0.728 0.6856 -16.9901 335.4884)" class="st3" cx="379.9" cy="187.4" rx="5.1" ry="5.1"/>
				
					<ellipse transform="matrix(0.6856 -0.728 0.728 0.6856 -17.2599 325.9357)" class="st3" cx="368.7" cy="182.9" rx="5.1" ry="5.1"/>
				
					<ellipse transform="matrix(0.6856 -0.728 0.728 0.6856 -17.5405 316.3528)" class="st3" cx="357.5" cy="178.5" rx="5.1" ry="5.1"/>
			</g>
			<g>
				
					<ellipse transform="matrix(1 -4.349418e-03 4.349418e-03 1 -2.0992 1.5843)" class="st3" cx="363.2" cy="483.4" rx="5.1" ry="5.1"/>
				
					<ellipse transform="matrix(1 -4.250570e-03 4.250570e-03 1 -2.0323 1.5958)" class="st3" cx="374.4" cy="478.9" rx="5.1" ry="5.1"/>
				
					<ellipse transform="matrix(1 -4.250570e-03 4.250570e-03 1 -2.0132 1.6434)" class="st3" cx="385.6" cy="474.4" rx="5.1" ry="5.1"/>
				
					<ellipse transform="matrix(1 -4.349371e-03 4.349371e-03 1 -2.0403 1.7304)" class="st3" cx="396.8" cy="470" rx="5.1" ry="5.1"/>
				
					<ellipse transform="matrix(1 -4.250566e-03 4.250566e-03 1 -1.9748 1.7385)" class="st3" cx="408" cy="465.5" rx="5.1" ry="5.1"/>
				
					<ellipse transform="matrix(1 -4.339529e-03 4.339529e-03 1 -1.9965 1.8236)" class="st3" cx="419.2" cy="461" rx="5.1" ry="5.1"/>
				
					<ellipse transform="matrix(1 -4.240680e-03 4.240680e-03 1 -1.932 1.8295)" class="st3" cx="430.4" cy="456.5" rx="5.1" ry="5.1"/>
				
					<ellipse transform="matrix(1 -4.339491e-03 4.339491e-03 1 -1.9573 1.9208)" class="st3" cx="441.6" cy="452" rx="5.1" ry="5.1"/>
				
					<ellipse transform="matrix(1 -4.339919e-03 4.339919e-03 1 -1.9379 1.9696)" class="st3" cx="452.9" cy="447.5" rx="5.1" ry="5.1"/>
				
					<ellipse transform="matrix(1 -4.241104e-03 4.241104e-03 1 -1.8748 1.9721)" class="st3" cx="464.1" cy="443" rx="5.1" ry="5.1"/>
				
					<ellipse transform="matrix(1 -4.348988e-03 4.348988e-03 1 -1.9027 2.0711)" class="st3" cx="475.3" cy="438.5" rx="5.1" ry="5.1"/>
				
					<ellipse transform="matrix(1 -4.250570e-03 4.250570e-03 1 -1.8406 2.0717)" class="st3" cx="486.5" cy="434.1" rx="5.1" ry="5.1"/>
				
					<ellipse transform="matrix(1 -4.349418e-03 4.349418e-03 1 -1.8637 2.1687)" class="st3" cx="497.7" cy="429.6" rx="5.1" ry="5.1"/>
				
					<ellipse transform="matrix(1 -4.339539e-03 4.339539e-03 1 -1.8399 2.2124)" class="st3" cx="508.9" cy="425.1" rx="5.1" ry="5.1"/>
				
					<ellipse transform="matrix(1 -4.250995e-03 4.250995e-03 1 -1.7833 2.2147)" class="st3" cx="520.1" cy="420.6" rx="5.1" ry="5.1"/>
				
					<ellipse transform="matrix(1 -4.349853e-03 4.349853e-03 1 -1.805 2.3151)" class="st3" cx="531.3" cy="416.1" rx="5.1" ry="5.1"/>
				
					<ellipse transform="matrix(1 -4.241109e-03 4.241109e-03 1 -1.7409 2.3046)" class="st3" cx="542.5" cy="411.6" rx="5.1" ry="5.1"/>
				
					<ellipse transform="matrix(1 -4.339925e-03 4.339925e-03 1 -1.7617 2.407)" class="st3" cx="553.7" cy="407.1" rx="5.1" ry="5.1"/>
				
					<ellipse transform="matrix(1 -4.339496e-03 4.339496e-03 1 -1.742 2.4553)" class="st3" cx="564.9" cy="402.6" rx="5.1" ry="5.1"/>
				
					<ellipse transform="matrix(1 -4.250570e-03 4.250570e-03 1 -1.6872 2.4525)" class="st3" cx="576.1" cy="398.2" rx="5.1" ry="5.1"/>
				
					<ellipse transform="matrix(1 -4.349418e-03 4.349418e-03 1 -1.7067 2.5583)" class="st3" cx="587.3" cy="393.7" rx="5.1" ry="5.1"/>
				
					<ellipse transform="matrix(1 -4.250570e-03 4.250570e-03 1 -1.6489 2.5477)" class="st3" cx="598.6" cy="389.2" rx="5.1" ry="5.1"/>
				
					<ellipse transform="matrix(1 -4.349375e-03 4.349375e-03 1 -1.6674 2.6557)" class="st3" cx="609.8" cy="384.7" rx="5.1" ry="5.1"/>
				
					<ellipse transform="matrix(1 -4.339147e-03 4.339147e-03 1 -1.644 2.6981)" class="st3" cx="621" cy="380.2" rx="5.1" ry="5.1"/>
				
					<ellipse transform="matrix(1 -4.250990e-03 4.250990e-03 1 -1.5915 2.6908)" class="st3" cx="632.2" cy="375.7" rx="5.1" ry="5.1"/>
				
					<ellipse transform="matrix(1 -4.349418e-03 4.349418e-03 1 -1.6086 2.8019)" class="st3" cx="643.4" cy="371.2" rx="5.1" ry="5.1"/>
			</g>
			<g>
				
					<ellipse transform="matrix(0.6851 -0.7284 0.7284 0.6851 -256.6984 150.708)" class="st3" cx="46" cy="372.3" rx="5.1" ry="5.1"/>
				
					<ellipse transform="matrix(0.6852 -0.7284 0.7284 0.6852 -256.3999 160.2643)" class="st3" cx="57.2" cy="376.7" rx="5.1" ry="5.1"/>
				
					<ellipse transform="matrix(0.6852 -0.7284 0.7284 0.6852 -256.1015 169.8181)" class="st3" cx="68.4" cy="381.2" rx="5.1" ry="5.1"/>
				
					<ellipse transform="matrix(0.6852 -0.7284 0.7284 0.6852 -255.8173 179.3927)" class="st3" cx="79.6" cy="385.6" rx="5.1" ry="5.1"/>
				
					<ellipse transform="matrix(0.6853 -0.7283 0.7283 0.6853 -255.5195 188.9432)" class="st3" cx="90.8" cy="390.1" rx="5.1" ry="5.1"/>
				
					<ellipse transform="matrix(0.6851 -0.7284 0.7284 0.6851 -255.2708 198.5805)" class="st3" cx="102.1" cy="394.6" rx="5.1" ry="5.1"/>
				
					<ellipse transform="matrix(0.6851 -0.7284 0.7284 0.6851 -254.9798 208.1438)" class="st3" cx="113.3" cy="399" rx="5.1" ry="5.1"/>
				
					<ellipse transform="matrix(0.6852 -0.7284 0.7284 0.6852 -254.6902 217.708)" class="st3" cx="124.5" cy="403.5" rx="5.1" ry="5.1"/>
				
					<ellipse transform="matrix(0.6852 -0.7284 0.7284 0.6852 -254.4031 227.2771)" class="st3" cx="135.7" cy="407.9" rx="5.1" ry="5.1"/>
				
					<ellipse transform="matrix(0.6851 -0.7284 0.7284 0.6851 -254.1275 236.8721)" class="st3" cx="146.9" cy="412.4" rx="5.1" ry="5.1"/>
				
					<ellipse transform="matrix(0.6852 -0.7284 0.7284 0.6852 -253.8307 246.4169)" class="st3" cx="158.2" cy="416.9" rx="5.1" ry="5.1"/>
				
					<ellipse transform="matrix(0.6851 -0.7284 0.7284 0.6851 -253.5635 256.0349)" class="st3" cx="169.4" cy="421.3" rx="5.1" ry="5.1"/>
				
					<ellipse transform="matrix(0.6852 -0.7284 0.7284 0.6852 -253.2676 265.5779)" class="st3" cx="180.6" cy="425.8" rx="5.1" ry="5.1"/>
				
					<ellipse transform="matrix(0.6852 -0.7284 0.7284 0.6852 -252.9788 275.1406)" class="st3" cx="191.8" cy="430.2" rx="5.1" ry="5.1"/>
				
					<ellipse transform="matrix(0.6851 -0.7285 0.7285 0.6851 -252.7198 284.7901)" class="st3" cx="203" cy="434.7" rx="5.1" ry="5.1"/>
				
					<ellipse transform="matrix(0.6852 -0.7284 0.7284 0.6852 -252.4215 294.3226)" class="st3" cx="214.2" cy="439.1" rx="5.1" ry="5.1"/>
				
					<ellipse transform="matrix(0.6852 -0.7284 0.7284 0.6852 -252.1368 303.8965)" class="st3" cx="225.5" cy="443.6" rx="5.1" ry="5.1"/>
				
					<ellipse transform="matrix(0.6852 -0.7283 0.7283 0.6852 -251.8398 313.4259)" class="st3" cx="236.7" cy="448.1" rx="5.1" ry="5.1"/>
				
					<ellipse transform="matrix(0.6851 -0.7284 0.7284 0.6851 -251.5731 323.0666)" class="st3" cx="247.9" cy="452.5" rx="5.1" ry="5.1"/>
				
					<ellipse transform="matrix(0.6852 -0.7284 0.7284 0.6852 -251.2848 332.6251)" class="st3" cx="259.1" cy="457" rx="5.1" ry="5.1"/>
				
					<ellipse transform="matrix(0.6852 -0.7284 0.7284 0.6852 -251.0002 342.1999)" class="st3" cx="270.3" cy="461.4" rx="5.1" ry="5.1"/>
				
					<ellipse transform="matrix(0.6853 -0.7283 0.7283 0.6853 -250.7006 351.7022)" class="st3" cx="281.6" cy="465.9" rx="5.1" ry="5.1"/>
				
					<ellipse transform="matrix(0.6852 -0.7284 0.7284 0.6852 -250.4281 361.3313)" class="st3" cx="292.8" cy="470.4" rx="5.1" ry="5.1"/>
				
					<ellipse transform="matrix(0.6852 -0.7284 0.7284 0.6852 -250.1414 370.8912)" class="st3" cx="304" cy="474.8" rx="5.1" ry="5.1"/>
				
					<ellipse transform="matrix(0.6852 -0.7284 0.7284 0.6852 -249.8637 380.5034)" class="st3" cx="315.2" cy="479.3" rx="5.1" ry="5.1"/>
				
					<ellipse transform="matrix(0.6851 -0.7285 0.7285 0.6851 -249.5863 390.12)" class="st3" cx="326.4" cy="483.7" rx="5.1" ry="5.1"/>
			</g>
		</g>
	</g>
	<line class="st1" x1="187.1" y1="234.6" x2="501.5" y2="235.1"/>
	<g>
		<g>
			<g>
				<path class="st4" d="M155.1,375.9h-41.9v-58.1h15v46.9h26.9V375.9z"/>
				<path class="st4" d="M214.8,375.9h-15.5l-4-11.7h-21.5l-4,11.7h-15.1l21.5-58.1h17.2L214.8,375.9z M191.7,353.5l-7.1-20.8
					l-7.1,20.8H191.7z"/>
				<path class="st4" d="M266.7,357.6c0,5.7-2.4,10.4-7.3,13.9c-4.9,3.6-11.4,5.4-19.8,5.4c-4.8,0-9-0.4-12.6-1.3
					c-3.6-0.8-6.9-1.9-10-3.2v-13.9h1.6c3.1,2.5,6.6,4.4,10.4,5.7c3.8,1.3,7.5,2,11.1,2c0.9,0,2.1-0.1,3.6-0.2
					c1.5-0.2,2.7-0.4,3.6-0.8c1.1-0.5,2.1-1.1,2.8-1.8c0.7-0.7,1.1-1.7,1.1-3.1c0-1.3-0.5-2.4-1.6-3.3c-1.1-0.9-2.7-1.6-4.7-2.1
					c-2.2-0.5-4.5-1-6.9-1.5c-2.4-0.5-4.7-1-6.8-1.7c-4.9-1.6-8.4-3.7-10.6-6.5c-2.1-2.7-3.2-6.1-3.2-10.1c0-5.4,2.4-9.8,7.3-13.2
					c4.9-3.4,11.1-5.1,18.7-5.1c3.8,0,7.6,0.4,11.3,1.1c3.7,0.7,7,1.7,9.7,2.8V334h-1.6c-2.3-1.9-5.2-3.4-8.6-4.7
					c-3.4-1.3-6.9-1.9-10.4-1.9c-1.2,0-2.5,0.1-3.7,0.3c-1.2,0.2-2.4,0.5-3.6,1c-1,0.4-1.9,1-2.6,1.8c-0.7,0.8-1.1,1.7-1.1,2.7
					c0,1.5,0.6,2.7,1.8,3.5c1.2,0.8,3.4,1.6,6.6,2.2c2.1,0.4,4.2,0.9,6.1,1.3c2,0.4,4.1,1,6.3,1.7c4.4,1.5,7.7,3.4,9.9,6
					C265.6,350.3,266.7,353.6,266.7,357.6z"/>
				<path class="st4" d="M348,317.8l-21.2,58.1h-16.8l-21.2-58.1h15.7l14,40.8l14-40.8H348z"/>
				<path class="st4" d="M391.9,375.9h-42v-58.1h42V329h-27.1v10H390v11.2h-25.2v14.4h27.1V375.9z"/>
				<path class="st4" d="M521.6,375.9h-15.5l-4-11.7h-21.5l-4,11.7h-15.1l21.5-58.1h17.2L521.6,375.9z M498.5,353.5l-7.1-20.8
					l-7.1,20.8H498.5z"/>
				<path class="st4" d="M575.5,357.6c0,5.7-2.4,10.4-7.3,13.9c-4.9,3.6-11.4,5.4-19.8,5.4c-4.8,0-9-0.4-12.6-1.3
					c-3.6-0.8-6.9-1.9-10-3.2v-13.9h1.6c3.1,2.5,6.6,4.4,10.4,5.7c3.8,1.3,7.5,2,11.1,2c0.9,0,2.1-0.1,3.6-0.2
					c1.5-0.2,2.7-0.4,3.6-0.8c1.1-0.5,2.1-1.1,2.8-1.8c0.7-0.7,1.1-1.7,1.1-3.1c0-1.3-0.5-2.4-1.6-3.3c-1.1-0.9-2.7-1.6-4.7-2.1
					c-2.2-0.5-4.5-1-6.9-1.5c-2.4-0.5-4.7-1-6.8-1.7c-4.9-1.6-8.4-3.7-10.6-6.5c-2.1-2.7-3.2-6.1-3.2-10.1c0-5.4,2.4-9.8,7.3-13.2
					c4.9-3.4,11.1-5.1,18.7-5.1c3.8,0,7.6,0.4,11.3,1.1c3.7,0.7,7,1.7,9.7,2.8V334h-1.6c-2.3-1.9-5.2-3.4-8.6-4.7
					c-3.4-1.3-6.9-1.9-10.4-1.9c-1.2,0-2.5,0.1-3.7,0.3c-1.2,0.2-2.4,0.5-3.6,1c-1,0.4-1.9,1-2.6,1.8c-0.7,0.8-1.1,1.7-1.1,2.7
					c0,1.5,0.6,2.7,1.8,3.5c1.2,0.8,3.4,1.6,6.6,2.2c2.1,0.4,4.2,0.9,6.1,1.3c2,0.4,4.1,1,6.3,1.7c4.4,1.5,7.7,3.4,9.9,6
					C574.4,350.3,575.5,353.6,575.5,357.6z"/>
			</g>
			<path class="st4" d="M434.3,356.8v-12.3h25.4c0,0,2.1,25.4-12.9,32.8c-3.6,1.8-8.2,2-13.3,2c-6.3,0-11.5-1.2-15.5-3.6
				c-4-2.4-7.1-6-9.3-10.7c-2.2-4.7-3.3-10.2-3.3-16.4c0-6.5,1.2-12.1,3.6-16.9c2.4-4.8,5.9-8.4,10.5-10.9c3.6-1.9,8.5-2.9,14.6-2.9
				c5.9,0,8.6,0.6,11.5,1.8c2.9,1.2,5.4,4.3,7.3,6.8l-11.7,9c-1.6-1.2-5.1-4.6-7.5-4.6c-3.6,0-6.5,1.4-8.6,4.2
				c-2.1,2.8-3.2,7.2-3.2,13.3c0,6.4,1.1,11,3.3,13.8c2.2,2.8,5.2,4.1,9.1,4.1c1.8,0,3.6-0.4,5.3-0.9c5.6-1.6,5.7-8.6,5.7-8.6H434.3
				z"/>
		</g>
		<g>
			<g>
				<path d="M162.6,302.1V285h-6.4v-2.3h15.4v2.3h-6.4v17.1H162.6z"/>
				<path d="M178.4,292.6c0-3.2,0.9-5.7,2.6-7.6c1.7-1.8,4-2.7,6.7-2.7c1.8,0,3.4,0.4,4.8,1.3c1.4,0.9,2.5,2,3.3,3.6
					c0.8,1.5,1.1,3.3,1.1,5.2c0,2-0.4,3.7-1.2,5.3c-0.8,1.6-1.9,2.7-3.4,3.5c-1.5,0.8-3,1.2-4.7,1.2c-1.8,0-3.5-0.4-4.9-1.3
					c-1.4-0.9-2.5-2.1-3.3-3.6C178.8,295.9,178.4,294.3,178.4,292.6z M181,292.7c0,2.3,0.6,4.2,1.9,5.5c1.3,1.3,2.8,2,4.7,2
					c1.9,0,3.5-0.7,4.8-2c1.2-1.4,1.9-3.3,1.9-5.8c0-1.6-0.3-3-0.8-4.1s-1.3-2.1-2.3-2.7c-1-0.6-2.2-1-3.5-1c-1.8,0-3.4,0.6-4.7,1.9
					C181.7,287.7,181,289.8,181,292.7z"/>
			</g>
			<g>
				<g>
					<path class="st5" d="M267.1,291.2c4-2.4,8-4.2,11.9-5.3c3.9-1.2,7-1.7,9.2-1.7c0.6,0,1.2,0.2,1.7,0.5c0.5,0.3,1,0.7,1.3,1.1
						c0.3,0.4,0.5,0.7,0.6,0.9c0,0.3-0.1,0.5-0.5,0.7c-0.4,0.1-1.1,0.3-2,0.5c0.2,0.3,0.5,0.6,0.9,1.1c0.4,0.4,0.6,0.8,0.8,1.1
						c0.2,0.3,0.3,0.5,0.3,0.7c0,0.4-0.5,1.2-1.8,2.3c-1.2,1.1-2.1,2-2.6,2.5c-0.5,0.5-0.7,1.2-0.6,2c0.2,1.3,1.2,1.9,3.1,1.9
						c2,0,5-1.1,8.9-3.4l0.2,1.6c-6.6,4.9-11.5,7.3-14.6,7.3c-1.1,0-1.9-0.2-2.4-0.7c-0.5-0.4-0.8-1.1-0.9-2c-0.2-1.4,0.4-3.4,1.7-6
						c-3.8,2.8-6.7,4.8-8.5,6c-1.9,1.2-3.5,1.8-4.8,1.8c-0.6,0-1.4-0.3-2.5-1c-1-0.7-1.9-1.5-2.8-2.6c-0.8-1-1.3-2.1-1.5-3.3
						c-0.1-0.8,0-1.5,0.1-2c0.2-0.5,0.6-1.1,1.3-1.7C264.5,292.9,265.6,292.2,267.1,291.2z M287.1,288.4c-7.1,2.1-12.2,3.8-15.2,5.3
						c-3,1.4-4.4,2.9-4.2,4.4c0.1,0.6,0.3,1,0.6,1.4c0.4,0.4,0.8,0.5,1.3,0.5c0.3,0,0.9-0.1,1.6-0.4c2.9-1.1,5.4-2.5,7.7-4.2
						C281.3,293.7,284,291.3,287.1,288.4z"/>
					<path class="st5" d="M326.3,295.9l0.2,1.7c-2.8,1.1-5.1,1.7-6.8,1.7c-0.9,0-1.9-0.1-3-0.3c-2.3,2-4.3,3.4-6.1,4.3
						c-1.7,0.9-3.5,1.4-5.4,1.4c-2.1,0-3.9-0.7-5.2-2.1c-1.3-1.4-2.1-3.1-2.3-5.1c-0.3-2.8,0.7-5.8,3-9c2.3-3.3,5.3-6.3,8.8-9.1
						c3.5-2.8,7-5.2,10.3-7c3.4-1.9,5.7-2.8,7-2.8c1.2,0,1.9,0.5,2,1.5c0.5,4.5-8.1,12.5-25.8,23.8c0,0.3,0,0.9,0.1,1.8
						c0.3,2.4,1.5,3.6,3.6,3.6c0.8,0,1.6-0.2,2.4-0.6c0.8-0.4,2-1.2,3.6-2.3c-0.8-0.9-1.2-1.6-1.3-2.1c-0.1-1,0.4-2,1.5-3.1
						c1.1-1.1,2.5-2.1,4-2.9c1.5-0.8,2.7-1.2,3.4-1.2c1.2,0,1.8,0.5,1.9,1.5c0.1,0.8-0.1,1.7-0.7,2.8c-0.5,1.1-1.4,2.3-2.5,3.7
						c0.5,0.2,0.9,0.4,1.2,0.5c0.3,0.1,0.7,0.2,1.3,0.2C323.1,297,324.6,296.7,326.3,295.9z M304.2,292c1.4-0.8,2.8-1.7,4.1-2.8
						c1.4-1.1,3.4-2.7,6-4.9c2.5-2.1,4.5-3.9,5.9-5.3c1.4-1.4,2.5-2.6,3.1-3.5c0.7-0.9,1-1.6,1-1.9c0-0.3-0.2-0.4-0.4-0.4
						c-0.6,0-1.9,0.6-3.7,1.9c-1.8,1.3-3.9,3-6.1,5.2c-3.1,3-5.4,5.3-6.8,6.8C305.9,288.6,304.8,290.3,304.2,292z"/>
					<path class="st5" d="M346.1,294.1c-3.7,3.3-6.6,5.7-8.6,7.1c-2,1.4-3.6,2.1-5,2.1c-1.1,0-2.1-0.3-3.1-0.8
						c-1-0.5-1.8-1.3-2.4-2.2c-0.6-0.9-1-1.9-1.1-3c-0.1-0.7,0-1.3,0.1-1.9c0.1-0.6,0.5-1.2,1-1.8c0.5-0.7,1.2-1.4,2.1-2.2
						c0.9-0.8,2-1.7,3.3-2.7c0.8-0.6,1.4-1.1,2-1.5c0.5-0.4,1.1-0.7,1.6-0.8c0.5-0.1,1.4-0.2,2.7-0.2c0.9,0,1.8,0.1,2.6,0.2
						c0.8,0.1,1.3,0.3,1.3,0.5c0,0.3-0.3,0.9-1.1,1.7c-0.7,0.8-2,1.8-3.7,3c-1.7,1.2-3.7,2.3-6,3.4c-0.4,1-0.6,1.8-0.5,2.3
						c0.1,0.7,0.6,1.1,1.5,1.1c0.3,0,0.9-0.2,1.6-0.5c0.8-0.4,2-1,3.8-2.1c1.8-1,3.4-1.9,4.8-2.7c1-0.6,2.2-1.5,3.5-2.6
						c1.3-1.2,2.4-2.1,3.2-2.6c1.9-1.4,3.3-2.2,4-2.6c0.7-0.4,1.4-0.6,2.1-0.6c0.7,0,1.2,0.1,1.4,0.4c0.3,0.3,0.5,0.8,0.6,1.6
						c0,0.4,0,0.7-0.1,0.9c-0.1,0.2-0.3,0.5-0.6,0.9c-0.3,0.4-1,1-1.9,2c-1,1-2.1,2.1-3.4,3.4c-0.7,0.7-1.3,1.5-1.8,2.3
						c-0.5,0.8-0.7,1.4-0.7,1.9c0.1,0.9,0.7,1.4,1.9,1.4c1,0,2.1-0.2,3.3-0.7c1.2-0.5,3.1-1.4,5.6-2.6l0.2,1.7
						c-3.1,1.9-5.4,3.2-6.9,4.1c-1.5,0.9-2.8,1.5-3.9,1.9c-1.1,0.4-2.2,0.7-3.2,0.7c-2.4,0-3.7-0.9-3.9-2.6
						c-0.1-0.7,0.2-1.5,0.7-2.7C343.8,297.9,344.8,296.2,346.1,294.1z"/>
					<path class="st5" d="M380.2,295.6l0.2,1.9c-5.4,4.8-9.9,7.2-13.6,7.2c-2,0-3.7-0.7-5-2c-1.3-1.3-2.1-3.1-2.4-5.3
						c-0.2-1.8,0.2-3.9,1.3-6.3c1.1-2.4,2.6-4.9,4.6-7.4c2-2.5,4.1-4.7,6.3-6.6c2.2-1.9,4.4-3.2,6.4-3.9c0.8-0.3,1.5-0.5,1.9-0.5
						c0.6,0,1,0.2,1.2,0.5c0.2,0.3,0.4,0.9,0.5,1.7c0.3,2.4-1,5.4-3.8,8.9c-2.8,3.5-6.8,7.1-12.1,10.8c-0.2,0.9-0.2,1.6-0.2,2.1
						c0.1,1.1,0.6,2,1.5,2.7c0.9,0.7,2,1,3.4,1c0.7,0,1.5-0.2,2.2-0.5c0.8-0.3,1.6-0.8,2.4-1.3C376,298.1,377.7,297.1,380.2,295.6z
						 M366.9,290.9c1.4-0.9,2.7-1.9,3.9-3c1.2-1.1,2.4-2.3,3.5-3.6c1.1-1.3,1.9-2.4,2.5-3.5c0.6-1,0.8-1.8,0.8-2.3
						c0-0.4-0.3-0.6-0.8-0.6c-0.2,0-0.5,0.1-0.9,0.3c-1.6,0.9-3.4,2.6-5.2,5.1C368.7,285.8,367.5,288.4,366.9,290.9z"/>
					<path class="st5" d="M407.2,295.8l0.2,1.7c-1.8,1-3.2,1.7-4.3,2.1c-1.1,0.3-2.7,0.5-4.9,0.4c-3.4,2.7-6.5,4-9.3,4
						c-1.6,0-3.1-0.3-4.5-1c-1.4-0.6-2.5-1.5-3.4-2.6c-0.9-1.1-1.5-2.4-1.6-3.7c-0.1-1.1,0.3-2.3,1.4-3.7c1-1.4,2.5-2.6,4.2-3.8
						c1.8-1.2,3.7-2.1,5.8-2.8c2.1-0.7,4.1-1.1,6-1.1c1.3,0,2.4,0.1,3.2,0.4c0.8,0.3,1.2,0.6,1.3,1.1c0,0.3-0.2,0.7-0.8,1.2
						c1.1,0.1,1.9,0.4,2.3,0.7c0.4,0.3,0.7,0.9,0.8,1.8c0.1,0.8-0.1,1.9-0.6,3.1c-0.5,1.3-1.2,2.5-2.2,3.6l0.8,0.5h0.6
						c0.5,0,1-0.1,1.4-0.2c0.5-0.1,0.9-0.3,1.2-0.5C405.3,296.8,406,296.4,407.2,295.8z M397.6,289c-2.3,0.9-4.2,1.7-5.8,2.4
						c-1.6,0.7-2.9,1.4-4,2.1c-1.1,0.7-1.8,1.4-2.1,2.2c-0.5,1.9-0.7,3-0.7,3.1c0.1,1.1,1.5,1.7,4.1,1.7c1.2,0,3.2-0.6,5.9-1.9
						c-0.6-0.8-0.9-1.6-1-2.3c-0.1-1.1,0.1-2.2,0.7-3.3C395.4,291.8,396.3,290.5,397.6,289z"/>
					<path class="st5" d="M427,294.1c-3.7,3.3-6.6,5.7-8.6,7.1c-2,1.4-3.6,2.1-5,2.1c-1.1,0-2.1-0.3-3.1-0.8c-1-0.5-1.8-1.3-2.4-2.2
						c-0.6-0.9-1-1.9-1.1-3c-0.1-0.7,0-1.3,0.1-1.9c0.1-0.6,0.5-1.2,1-1.8c0.5-0.7,1.2-1.4,2.1-2.2c0.9-0.8,2-1.7,3.3-2.7
						c0.8-0.6,1.4-1.1,2-1.5c0.5-0.4,1.1-0.7,1.6-0.8c0.5-0.1,1.4-0.2,2.7-0.2c0.9,0,1.8,0.1,2.6,0.2c0.8,0.1,1.3,0.3,1.3,0.5
						c0,0.3-0.3,0.9-1.1,1.7c-0.7,0.8-2,1.8-3.7,3c-1.7,1.2-3.7,2.3-6,3.4c-0.4,1-0.6,1.8-0.5,2.3c0.1,0.7,0.6,1.1,1.5,1.1
						c0.3,0,0.9-0.2,1.6-0.5c0.8-0.4,2-1,3.8-2.1c1.8-1,3.4-1.9,4.8-2.7c1-0.6,2.2-1.5,3.5-2.6c1.3-1.2,2.4-2.1,3.2-2.6
						c1.9-1.4,3.3-2.2,4-2.6c0.7-0.4,1.4-0.6,2.1-0.6c0.7,0,1.2,0.1,1.4,0.4c0.3,0.3,0.5,0.8,0.6,1.6c0,0.4,0,0.7-0.1,0.9
						c-0.1,0.2-0.3,0.5-0.6,0.9c-0.3,0.4-1,1-1.9,2c-1,1-2.1,2.1-3.4,3.4c-0.7,0.7-1.3,1.5-1.8,2.3c-0.5,0.8-0.7,1.4-0.7,1.9
						c0.1,0.9,0.7,1.4,1.9,1.4c1,0,2.1-0.2,3.3-0.7c1.2-0.5,3.1-1.4,5.6-2.6l0.2,1.7c-3.1,1.9-5.4,3.2-6.9,4.1
						c-1.5,0.9-2.8,1.5-3.9,1.9c-1.1,0.4-2.2,0.7-3.2,0.7c-2.4,0-3.7-0.9-3.9-2.6c-0.1-0.7,0.2-1.5,0.7-2.7
						C424.7,297.9,425.6,296.2,427,294.1z"/>
					<path class="st5" d="M440.6,296.6l-0.1-0.6c6.8-4.7,11.4-8,13.9-9.9c0.4-2.1,1.8-3.2,4.1-3.2c0.6,0,1.2,0.1,2,0.3l0.3,0.5
						c-0.1,0.2-0.1,0.5-0.1,0.9c0,0.3,0.3,0.9,0.8,1.8c0.5,0.9,0.9,1.6,1.2,2.3c0.3,0.6,0.5,1.3,0.6,2.1c0.1,1.1-0.2,2.2-0.9,3.3
						c-0.7,1.1-1.8,2.1-3.3,3c-1.5,1-3.5,1.9-5.9,3c1,0.1,3.1-0.8,3.6-1c4-1.8,7.8-1.9,9.9-2c2.4-0.2,10.3,0.5,12.1-0.5l0.2,2.5
						c-3.4,2.2-15.5,1.8-18.6,2.7c-3,0.9-6.5,2.5-8.6,2.5c-2.7,0-5.2-0.7-7.7-2.1c-1.4-0.8-2.4-1.6-2.8-2.4
						C441.1,298.9,440.8,297.9,440.6,296.6z M456,292.6l-1.2-3.8c-1.6,1.2-5.1,3.5-10.5,7c1.7,0.2,2.9,0.5,3.6,0.9
						c0.7,0.4,1.6,1.1,2.9,2.2c1.9-0.5,3.3-1.1,4.2-2c0.9-0.8,1.3-2,1.1-3.4c0-0.2,0-0.3-0.1-0.5C456.1,292.9,456.1,292.8,456,292.6
						z"/>
				</g>
				<path class="st5" d="M227.6,265.3c0,0-4.2,4,4.5,3.5s40.2-0.9,42.6,0c2.4,1,14.1,9,7.6,9s-40.4,0-40.4,0s-7.3,8.2-3.1,8.2
					s14.8,0,14.8,0s8.2,0.2,1.8,6.8h-21.3c0,0-1-0.5-5.2,5.2s-10.5,15.5-10.5,15.5s-1.3,3.8-3.5-2s-2.2-5.2,0.5-9.5
					c2.8-4.3,7.7-9.6,7.7-9.6s-1.4-0.2-1.2-1.2s0.5-5.2,0.5-5.2l7,0.2l3.1-8.3h-8.7C223.7,277.8,214.4,276.8,227.6,265.3z"/>
			</g>
		</g>
		<g>
			<g>
				<path d="M235.6,414.8v-19.4h3.8l7.9,12.9v-12.9h3.6v19.4H247l-7.8-12.6v12.6H235.6z"/>
				<path d="M272.1,414.8v-19.4h14.4v3.3H276v4.3h9.7v3.3H276v5.3h10.8v3.3H272.1z"/>
				<path d="M312.2,414.8l-6.9-19.4h4.2l4.9,14.3l4.7-14.3h4.1l-6.9,19.4H312.2z"/>
				<path d="M358.8,414.8h-4.3l-1.7-4.4h-7.7l-1.6,4.4h-4.1l7.5-19.4h4.1L358.8,414.8z M351.6,407.2l-2.7-7.2l-2.6,7.2H351.6z"/>
				<path d="M376.9,395.5h7.1c1.6,0,2.8,0.1,3.7,0.4c1.1,0.3,2.1,0.9,2.9,1.8c0.8,0.9,1.4,1.9,1.8,3.1c0.4,1.2,0.6,2.8,0.6,4.6
					c0,1.6-0.2,3-0.6,4.1c-0.5,1.4-1.2,2.5-2.1,3.4c-0.7,0.7-1.6,1.2-2.7,1.5c-0.9,0.3-2,0.4-3.5,0.4h-7.4V395.5z M380.8,398.7v12.8
					h2.9c1.1,0,1.9-0.1,2.4-0.2c0.6-0.2,1.2-0.4,1.6-0.8c0.4-0.4,0.8-1,1-1.9c0.3-0.9,0.4-2,0.4-3.5c0-1.5-0.1-2.6-0.4-3.4
					c-0.3-0.8-0.6-1.4-1.1-1.9c-0.5-0.4-1.1-0.8-1.8-0.9c-0.5-0.1-1.6-0.2-3.2-0.2H380.8z"/>
				<path d="M433,414.8h-4.3l-1.7-4.4h-7.7l-1.6,4.4h-4.2l7.5-19.4h4.1L433,414.8z M425.8,407.2l-2.7-7.2l-2.6,7.2H425.8z"/>
			</g>
		</g>
	</g>
	<polygon class="st6" points="260.5,110.6 304.2,168.8 246,125.1 187.7,168.8 231.4,110.6 187.7,52.3 246,96 304.2,52.3 	"/>
	<polygon class="st6" points="258.3,98.2 345.2,110.6 258.3,123 246,209.8 233.6,123 146.7,110.6 233.6,98.2 246,11.3 	"/>
	<g>
		<circle class="st7" cx="136.8" cy="226.7" r="34.8"/>
		<circle class="st7" cx="206.5" cy="226.7" r="34.8"/>
		<circle class="st7" cx="275.3" cy="226.7" r="34.8"/>
		<circle class="st7" cx="344.3" cy="226.7" r="34.8"/>
		<circle class="st7" cx="413.3" cy="226.7" r="34.8"/>
		<circle class="st7" cx="482.4" cy="226.7" r="34.8"/>
		<circle class="st7" cx="551.4" cy="226.7" r="34.8"/>
		<path class="st4" d="M123,246.2l-9.8-36.8h5l5.6,24.1c0.6,2.5,1.1,5,1.6,7.5c0.9-3.9,1.5-6.2,1.7-6.8l7-24.9h5.9l5.3,18.6
			c1.3,4.6,2.3,9,2.9,13c0.5-2.3,1.1-5,1.8-8l5.8-23.6h4.9l-10.1,36.8h-4.7l-7.8-28c-0.7-2.3-1-3.8-1.2-4.3
			c-0.4,1.7-0.7,3.1-1.1,4.3l-7.8,28H123z"/>
		<path class="st4" d="M192.8,246.2v-36.8h26.6v4.3h-21.7V225H218v4.3h-20.4v12.5h22.6v4.3H192.8z"/>
		<path class="st4" d="M265.9,246.2v-36.8h4.9v32.5h18.1v4.3H265.9z"/>
		<path class="st4" d="M355.2,233.3l4.9,1.2c-1,4-2.9,7.1-5.5,9.1c-2.7,2.1-5.9,3.2-9.7,3.2c-4,0-7.2-0.8-9.7-2.4
			c-2.5-1.6-4.4-4-5.7-7c-1.3-3.1-1.9-6.4-1.9-9.9c0-3.8,0.7-7.2,2.2-10c1.5-2.9,3.5-5,6.3-6.5c2.7-1.5,5.7-2.2,8.9-2.2
			c3.7,0,6.8,0.9,9.3,2.8c2.5,1.9,4.3,4.5,5.2,7.9l-4.8,1.1c-0.9-2.7-2.1-4.6-3.7-5.8c-1.6-1.2-3.7-1.8-6.1-1.8
			c-2.8,0-5.2,0.7-7.1,2c-1.9,1.4-3.2,3.2-4,5.5c-0.8,2.3-1.2,4.6-1.2,7.1c0,3.1,0.5,5.9,1.4,8.2c0.9,2.3,2.3,4.1,4.3,5.2
			c1.9,1.2,4,1.7,6.2,1.7c2.7,0,5-0.8,6.9-2.4C353.3,238.8,354.6,236.4,355.2,233.3z"/>
		<path class="st4" d="M396.5,228.3c0-6.1,1.6-10.9,4.9-14.3c3.3-3.5,7.5-5.2,12.7-5.2c3.4,0,6.5,0.8,9.2,2.4
			c2.7,1.6,4.8,3.9,6.2,6.8c1.4,2.9,2.1,6.2,2.1,9.9c0,3.7-0.8,7.1-2.3,10c-1.5,2.9-3.6,5.2-6.4,6.7c-2.8,1.5-5.7,2.3-8.9,2.3
			c-3.5,0-6.6-0.8-9.3-2.5c-2.7-1.7-4.8-4-6.2-6.9C397.2,234.6,396.5,231.5,396.5,228.3z M401.6,228.4c0,4.4,1.2,7.9,3.6,10.5
			c2.4,2.6,5.4,3.8,9,3.8c3.7,0,6.7-1.3,9.1-3.9c2.4-2.6,3.6-6.2,3.6-11c0-3-0.5-5.6-1.5-7.8c-1-2.2-2.5-4-4.4-5.2
			c-2-1.2-4.1-1.8-6.6-1.8c-3.4,0-6.4,1.2-8.9,3.6C402.8,218.9,401.6,222.8,401.6,228.4z"/>
		<path class="st4" d="M465.7,246.2v-36.8h7.3l8.7,26.1c0.8,2.4,1.4,4.2,1.8,5.4c0.4-1.3,1.1-3.3,2-5.9l8.8-25.6h6.6v36.8h-4.7
			v-30.8l-10.7,30.8h-4.4l-10.6-31.3v31.3H465.7z"/>
		<path class="st4" d="M537.7,246.2v-36.8h26.6v4.3h-21.7V225h20.4v4.3h-20.4v12.5h22.6v4.3H537.7z"/>
	</g>
</g>
</svg>
